<?xml version="1.0" standalone="no"?>
<!DOCTYPE svg PUBLIC "-//W3C//DTD SVG 20010904//EN"
 "http://www.w3.org/TR/2001/REC-SVG-20010904/DTD/svg10.dtd">
<svg version="1.0" xmlns="http://www.w3.org/2000/svg"
 width="1806.000000pt" height="1806.000000pt" viewBox="0 0 1806.000000 1806.000000"
 preserveAspectRatio="xMidYMid meet">
<metadata>
Created by potrace 1.11, written by Peter Selinger 2001-2013
</metadata>
<g transform="translate(0.000000,1806.000000) scale(0.100000,-0.100000)"
fill="#000000" stroke="none">
<path d="M2258 14196 c-53 -19 -82 -40 -114 -81 -56 -74 -53 27 -54 -1792 l0
-1683 3045 0 3045 0 0 1688 0 1687 -24 50 c-28 60 -66 97 -126 124 -45 20 -51
20 -2890 20 -2349 0 -2852 -2 -2882 -13z"/>
<path d="M10050 14189 c-56 -25 -95 -62 -123 -114 l-22 -40 -3 -1697 -2 -1698
3045 0 3045 0 -2 1698 -3 1697 -22 40 c-25 47 -64 85 -113 111 -34 18 -126 19
-2895 21 l-2860 3 -45 -21z"/>
<path d="M1308 10600 c-40 -12 -90 -45 -120 -79 -61 -67 -58 -10 -58 -1307 0
-1124 -1 -1185 -17 -1180 -10 3 -54 8 -98 11 -80 6 -108 9 -260 22 -144 12
-190 8 -237 -24 -62 -41 -95 -112 -98 -204 0 -12 -13 -18 -48 -23 -139 -19
-257 -135 -278 -274 -11 -75 32 -132 101 -132 14 0 26 -3 26 -7 4 -24 7 -72
13 -198 4 -77 9 -169 11 -205 5 -72 14 -252 21 -375 2 -44 6 -127 9 -185 3
-58 8 -143 10 -190 5 -101 14 -254 20 -365 3 -44 7 -132 10 -195 3 -63 8 -141
10 -172 l4 -58 -70 0 c-38 0 -85 -6 -103 -14 -47 -20 -90 -68 -105 -116 -8
-26 -18 -40 -29 -40 -16 -1 -16 -1 0 -13 9 -7 20 -26 23 -43 20 -84 101 -144
197 -144 l53 -1 -52 -18 c-176 -60 -255 -260 -167 -421 43 -78 134 -145 213
-155 14 -2 209 -4 434 -4 l407 -1 0 -325 0 -325 375 0 375 0 0 325 0 325 1995
0 1995 0 0 -325 0 -325 3135 0 3135 0 0 325 0 325 2010 0 2010 0 0 -325 0
-325 375 0 375 0 0 325 0 325 443 1 c243 0 453 2 467 5 52 9 131 56 166 99 53
65 74 129 69 213 -8 158 -120 268 -285 280 l-70 5 -2 741 -3 741 -152 3 c-144
2 -152 4 -150 22 1 11 5 20 9 20 5 0 4 8 -1 18 -6 11 -6 24 0 35 10 16 19 78
22 149 1 21 4 38 8 38 3 0 5 10 6 23 1 26 11 102 13 102 1 0 3 14 4 30 4 38
15 120 23 165 3 19 7 44 8 55 1 11 3 23 4 28 0 4 8 7 16 7 9 0 21 5 28 10 7 6
25 20 40 31 36 27 67 89 69 136 7 156 -150 265 -291 202 -100 -44 -139 -126
-117 -244 8 -39 71 -115 96 -115 6 0 8 -10 6 -22 -3 -13 -7 -48 -10 -78 -3
-30 -8 -66 -11 -80 -3 -14 -8 -47 -10 -75 -5 -54 -21 -150 -25 -150 -1 0 -3
-20 -5 -45 -1 -25 -4 -45 -5 -45 -1 0 -3 -11 -5 -25 -6 -54 -17 -144 -20 -159
-2 -9 -4 -19 -4 -23 -1 -5 -53 -8 -116 -8 -114 0 -115 0 -111 23 3 12 8 49 11
82 3 33 8 67 10 75 3 13 12 87 20 160 1 14 6 49 10 79 7 53 7 53 38 47 17 -3
32 -8 34 -10 2 -1 -1 -36 -7 -77 -5 -41 -12 -90 -14 -109 -2 -19 -7 -61 -11
-92 -6 -49 -5 -59 10 -64 26 -10 33 5 45 101 6 50 12 104 15 120 2 17 7 53 10
80 8 65 12 91 20 142 8 48 7 49 -65 57 -25 3 -46 5 -48 5 -2 1 3 44 12 106 4
26 -14 65 -30 65 -7 0 -14 5 -16 12 -4 10 -13 10 -46 0 -49 -15 -53 -24 -66
-133 -7 -55 -11 -90 -20 -157 -3 -20 -8 -64 -13 -97 -4 -33 -8 -62 -8 -65 -1
-3 -6 -41 -11 -85 -6 -53 -11 548 -14 1755 l-5 1835 -22 42 c-27 50 -94 105
-148 122 -31 9 -864 11 -3795 9 l-3755 -3 -41 -22 c-23 -12 -57 -40 -76 -62
l-33 -39 -33 39 c-19 22 -52 49 -75 62 l-42 22 -3760 2 c-2068 1 -3772 -2
-3787 -7z m4562 -4770 l0 -130 -834 0 c-745 0 -836 -2 -850 -16 -24 -23 -24
-555 0 -578 14 -15 -98 -16 -1233 -16 -1067 1 -1243 3 -1216 15 67 29 113 102
113 179 0 82 -81 165 -169 174 l-49 4 3 57 c6 100 19 385 19 414 l0 27 2108 0
2108 0 0 -130z m10540 -305 l0 -435 -1622 1 -1623 0 54 21 c66 25 143 99 174
166 34 73 31 188 -6 264 -31 64 -89 120 -157 152 -44 20 -59 21 -505 23 -472
3 -501 1 -567 -37 -17 -9 -18 0 -18 135 l0 145 2135 0 2135 0 0 -435z m-4170
-428 c8 -3 -11 -6 -42 -6 -55 -1 -58 0 -58 23 l0 25 43 -18 c23 -10 49 -21 57
-24z"/>
</g>
</svg>
