<?xml version="1.0" standalone="no"?>
<!DOCTYPE svg PUBLIC "-//W3C//DTD SVG 20010904//EN"
 "http://www.w3.org/TR/2001/REC-SVG-20010904/DTD/svg10.dtd">
<svg version="1.0" xmlns="http://www.w3.org/2000/svg"
 width="170.000000pt" height="170.000000pt" viewBox="0 0 170.000000 170.000000"
 preserveAspectRatio="xMidYMid meet">
<metadata>
Created by potrace 1.11, written by Peter Selinger 2001-2013
</metadata>
<g transform="translate(0.000000,170.000000) scale(0.100000,-0.100000)"
fill="#000000" stroke="none">
<path d="M610 1372 l0 -319 -187 -294 c-102 -162 -226 -357 -275 -434 -48 -76
-88 -146 -88 -155 0 -8 35 -50 78 -93 l77 -77 632 0 631 0 83 85 c46 47 85 89
87 94 3 8 -61 110 -173 281 -13 19 -107 165 -209 324 l-186 289 0 309 0 308
-235 0 -235 0 0 -318z"/>
</g>
</svg>
