<?xml version="1.0" standalone="no"?>
<!DOCTYPE svg PUBLIC "-//W3C//DTD SVG 20010904//EN"
 "http://www.w3.org/TR/2001/REC-SVG-20010904/DTD/svg10.dtd">
<svg version="1.0" xmlns="http://www.w3.org/2000/svg"
 width="1890.000000pt" height="1890.000000pt" viewBox="0 0 1890.000000 1890.000000"
 preserveAspectRatio="xMidYMid meet">
<metadata>
Created by potrace 1.11, written by Peter Selinger 2001-2013
</metadata>
<g transform="translate(0.000000,1890.000000) scale(0.100000,-0.100000)"
fill="#000000" stroke="none">
<path d="M2673 14408 c-27 -10 -59 -28 -73 -41 -27 -23 -72 -91 -78 -117 -2
-8 -5 -777 -6 -1707 l-2 -1693 1024 0 c815 0 1023 -3 1019 -12 -3 -7 -13 -33
-22 -58 -10 -25 -22 -49 -26 -54 -5 -5 -566 -10 -1361 -10 l-1353 -1 -59 -29
c-87 -43 -152 -117 -173 -199 -3 -12 -6 -550 -7 -1196 l-1 -1173 -105 6 c-58
4 -150 9 -205 13 -55 4 -148 7 -207 7 -93 1 -110 -2 -134 -20 -45 -33 -63 -65
-77 -134 -13 -64 -13 -65 -52 -72 -144 -25 -248 -147 -254 -296 -3 -76 16
-102 76 -106 24 -1 45 -4 47 -7 2 -2 7 -65 11 -139 4 -74 8 -166 10 -205 8
-151 16 -283 20 -340 3 -33 7 -116 10 -185 3 -69 8 -147 10 -175 3 -27 7 -104
10 -170 6 -127 10 -191 20 -345 7 -126 16 -284 18 -340 l2 -46 -60 1 c-85 2
-138 -19 -179 -69 -41 -49 -55 -122 -37 -179 24 -71 101 -126 178 -128 l38 0
-51 -20 c-116 -44 -185 -141 -190 -267 -3 -84 18 -147 71 -209 34 -40 114 -89
156 -97 13 -3 214 -5 447 -5 l422 -1 0 -270 0 -270 375 0 375 0 0 270 0 270
1995 0 1995 0 0 -270 0 -270 3135 0 3135 0 0 270 0 270 2010 0 2010 0 0 -270
0 -270 375 0 375 0 0 270 0 269 468 3 467 3 54 30 c105 58 163 160 157 277 -7
158 -120 273 -281 286 -65 5 -65 5 -66 36 0 17 0 347 -1 733 0 598 -2 704 -14
714 -10 8 -64 12 -172 12 -86 -1 -160 1 -163 3 -3 1 2 63 12 136 9 73 20 160
23 192 6 56 9 74 20 157 3 19 8 63 11 96 4 34 8 70 9 79 2 11 19 22 45 30 92
27 144 95 142 190 -1 140 -153 225 -278 154 -83 -46 -116 -157 -73 -245 14
-29 36 -55 57 -67 29 -18 33 -24 29 -52 -6 -36 -16 -115 -22 -166 -2 -19 -6
-55 -9 -80 -6 -44 -11 -86 -20 -165 -2 -22 -7 -56 -10 -75 -5 -39 -15 -122
-18 -160 l-2 -25 -177 -2 c-172 -1 -180 0 -180 27 0 23 13 170 17 190 3 14 8
52 10 85 3 33 7 69 9 80 2 11 7 45 11 75 3 30 8 69 10 85 2 17 7 57 10 90 4
33 8 62 10 65 1 3 -1 15 -6 28 -7 19 -15 23 -40 20 l-31 -3 -2 1525 -2 1525
-22 45 c-42 84 -139 167 -204 174 -13 1 -28 5 -33 8 -6 3 -621 5 -1367 4
l-1358 -1 -29 72 -30 73 1057 2 1057 3 1 1685 c1 1107 -2 1689 -8 1698 -6 6
-8 12 -4 12 9 0 -29 70 -51 96 -26 30 -61 51 -113 67 -39 13 -436 14 -2880 13
l-2835 -1 -45 -21 c-62 -30 -106 -76 -128 -137 -18 -50 -18 -118 -18 -1732 l1
-1680 1037 -3 1037 -2 -26 -63 c-13 -34 -29 -66 -33 -71 -5 -5 -562 -9 -1307
-9 -1221 0 -1301 -1 -1356 -17 -78 -24 -130 -62 -170 -124 -33 -49 -56 -118
-55 -161 1 -39 -2 -58 -9 -51 -4 3 -8 35 -9 71 -5 115 -70 209 -182 262 l-57
28 -1323 1 c-772 0 -1326 5 -1331 10 -4 5 -16 29 -26 54 -9 25 -19 51 -22 57
-4 10 213 13 1048 15 l1054 3 0 1695 0 1695 -23 40 c-39 71 -81 108 -146 127
-32 10 -679 12 -2873 13 -2718 1 -2835 0 -2880 -17z m1997 -8333 c0 -2 -76
-194 -168 -427 -93 -233 -172 -431 -175 -440 -6 -17 -68 -18 -1104 -18 l-1098
0 42 21 c119 59 136 233 31 312 -40 30 -71 41 -118 41 l-35 1 1 60 c1 55 12
273 19 370 2 22 3 50 4 63 l1 22 1300 0 c715 0 1300 -2 1300 -5z m12151 -12
c4 -22 5 -850 1 -860 -3 -10 -241 -13 -1143 -13 -1077 0 -1140 1 -1145 18 -3
9 -10 26 -15 37 -5 11 -63 157 -129 325 -67 168 -129 325 -140 350 -10 25 -28
69 -39 98 l-21 52 1315 0 c723 0 1316 -3 1316 -7z"/>
<path d="M17433 7249 c-23 -24 3 -46 62 -54 54 -6 56 -8 51 -33 -3 -15 -8 -49
-11 -77 -3 -27 -7 -72 -10 -100 -3 -27 -10 -76 -15 -109 -12 -74 3 -110 36
-88 13 8 20 40 29 122 4 30 8 66 10 80 2 14 6 50 9 80 3 30 8 78 11 106 5 36
3 53 -7 61 -21 17 -151 27 -165 12z"/>
</g>
</svg>
